<svg width="12" height="11" viewBox="0 0 12 11" fill="none" xmlns="http://www.w3.org/2000/svg">
<path d="M10.75 2.26807H0.75C0.336 2.26807 0 1.93107 0 1.51807C0 1.10507 0.336 0.768066 0.75 0.768066H10.75C11.164 0.768066 11.5 1.10307 11.5 1.51807C11.5 1.93307 11.164 2.26807 10.75 2.26807ZM10.75 6.37807H0.75C0.336 6.37807 0 6.04207 0 5.62807C0 5.21407 0.336 4.87807 0.75 4.87807H10.75C11.164 4.87807 11.5 5.21407 11.5 5.62807C11.5 6.04207 11.164 6.37807 10.75 6.37807ZM5.75 10.4881H0.75C0.336 10.4881 0 10.1531 0 9.73807C0 9.32307 0.336 8.98807 0.75 8.98807H5.75C6.164 8.98807 6.5 9.32507 6.5 9.73807C6.5 10.1511 6.164 10.4881 5.75 10.4881Z" fill="black"/>
</svg>
