<svg width="20" height="24" viewBox="0 0 20 24" fill="none" xmlns="http://www.w3.org/2000/svg">
<path d="M9.97011 11.9559C8.38811 11.9559 6.61944 11.7809 5.49011 10.4905C4.54044 9.40554 4.23361 7.72788 4.55095 5.36655C4.99428 2.06955 7.01961 0.101379 9.97128 0.101379C12.9229 0.101379 14.9494 2.06955 15.3916 5.36655C15.7089 7.72788 15.4009 9.40321 14.4513 10.4905C13.3196 11.7809 11.5521 11.9547 9.97128 11.9547L9.97011 11.9559ZM16.7939 23.4475H3.14628C2.37278 23.4475 1.68795 23.1209 1.22128 22.5305C0.728946 21.9075 0.549279 21.0489 0.742946 20.2346C1.71595 16.1162 5.50994 13.238 9.96894 13.238C14.4279 13.238 18.2219 16.115 19.1973 20.2346C19.3886 21.0489 19.2089 21.9075 18.7166 22.5294C18.2499 23.1185 17.5674 23.4452 16.7939 23.4452V23.4475Z" fill="black"/>
</svg>
